<svg width="193" height="75" viewBox="0 0 193 75" fill="none" xmlns="http://www.w3.org/2000/svg">
<path fill-rule="evenodd" clip-rule="evenodd" d="M2 2H73V20H75V0H0V75H75V56H73V73H2V2Z" fill="url(#paint0_linear_22_78)"/>
<path d="M30.64 31.56C31.648 31.56 32.544 31.776 33.328 32.208C34.128 32.64 34.752 33.28 35.2 34.128C35.664 34.976 35.896 36 35.896 37.2V45H33.184V37.608C33.184 36.424 32.888 35.52 32.296 34.896C31.704 34.256 30.896 33.936 29.872 33.936C28.848 33.936 28.032 34.256 27.424 34.896C26.832 35.52 26.536 36.424 26.536 37.608V45H23.8V27.24H26.536V33.312C27 32.752 27.584 32.32 28.288 32.016C29.008 31.712 29.792 31.56 30.64 31.56ZM51.3619 31.776V45H48.6259V43.44C48.1939 43.984 47.6259 44.416 46.9219 44.736C46.2339 45.04 45.4979 45.192 44.7139 45.192C43.6739 45.192 42.7379 44.976 41.9059 44.544C41.0899 44.112 40.4419 43.472 39.9619 42.624C39.4979 41.776 39.2659 40.752 39.2659 39.552V31.776H41.9779V39.144C41.9779 40.328 42.2739 41.24 42.8659 41.88C43.4579 42.504 44.2659 42.816 45.2899 42.816C46.3139 42.816 47.1219 42.504 47.7139 41.88C48.3219 41.24 48.6259 40.328 48.6259 39.144V31.776H51.3619ZM66.9479 31.776V45H64.2119V43.44C63.7799 43.984 63.2119 44.416 62.5079 44.736C61.8199 45.04 61.0839 45.192 60.2999 45.192C59.2599 45.192 58.3239 44.976 57.4919 44.544C56.6759 44.112 56.0279 43.472 55.5479 42.624C55.0839 41.776 54.8519 40.752 54.8519 39.552V31.776H57.5639V39.144C57.5639 40.328 57.8599 41.24 58.4519 41.88C59.0439 42.504 59.8519 42.816 60.8759 42.816C61.8999 42.816 62.7079 42.504 63.2999 41.88C63.9079 41.24 64.2119 40.328 64.2119 39.144V31.776H66.9479ZM77.2298 31.56C78.2698 31.56 79.1978 31.776 80.0138 32.208C80.8458 32.64 81.4938 33.28 81.9578 34.128C82.4218 34.976 82.6538 36 82.6538 37.2V45H79.9418V37.608C79.9418 36.424 79.6458 35.52 79.0538 34.896C78.4618 34.256 77.6538 33.936 76.6298 33.936C75.6058 33.936 74.7898 34.256 74.1818 34.896C73.5898 35.52 73.2938 36.424 73.2938 37.608V45H70.5578V31.776H73.2938V33.288C73.7418 32.744 74.3098 32.32 74.9978 32.016C75.7018 31.712 76.4458 31.56 77.2298 31.56ZM86.5758 28.32H89.5518L87.0318 34.032H85.1118L86.5758 28.32ZM96.7563 45.216C95.7163 45.216 94.7803 45.032 93.9483 44.664C93.1323 44.28 92.4843 43.768 92.0043 43.128C91.5243 42.472 91.2683 41.744 91.2363 40.944H94.0683C94.1163 41.504 94.3803 41.976 94.8603 42.36C95.3563 42.728 95.9723 42.912 96.7083 42.912C97.4763 42.912 98.0683 42.768 98.4843 42.48C98.9163 42.176 99.1323 41.792 99.1323 41.328C99.1323 40.832 98.8923 40.464 98.4123 40.224C97.9483 39.984 97.2043 39.72 96.1803 39.432C95.1883 39.16 94.3803 38.896 93.7563 38.64C93.1323 38.384 92.5883 37.992 92.1243 37.464C91.6763 36.936 91.4523 36.24 91.4523 35.376C91.4523 34.672 91.6603 34.032 92.0763 33.456C92.4923 32.864 93.0843 32.4 93.8523 32.064C94.6363 31.728 95.5323 31.56 96.5403 31.56C98.0443 31.56 99.2523 31.944 100.164 32.712C101.092 33.464 101.588 34.496 101.652 35.808H98.9163C98.8683 35.216 98.6283 34.744 98.1963 34.392C97.7643 34.04 97.1803 33.864 96.4443 33.864C95.7243 33.864 95.1723 34 94.7883 34.272C94.4043 34.544 94.2123 34.904 94.2123 35.352C94.2123 35.704 94.3403 36 94.5963 36.24C94.8523 36.48 95.1643 36.672 95.5323 36.816C95.9003 36.944 96.4443 37.112 97.1643 37.32C98.1243 37.576 98.9083 37.84 99.5163 38.112C100.14 38.368 100.676 38.752 101.124 39.264C101.572 39.776 101.804 40.456 101.82 41.304C101.82 42.056 101.612 42.728 101.196 43.32C100.78 43.912 100.188 44.376 99.4203 44.712C98.6683 45.048 97.7803 45.216 96.7563 45.216ZM110.099 38.328C110.099 37 110.371 35.824 110.915 34.8C111.475 33.776 112.227 32.984 113.171 32.424C114.131 31.848 115.195 31.56 116.363 31.56C117.227 31.56 118.075 31.752 118.907 32.136C119.755 32.504 120.427 33 120.923 33.624V27.24H123.683V45H120.923V43.008C120.475 43.648 119.851 44.176 119.051 44.592C118.267 45.008 117.363 45.216 116.339 45.216C115.187 45.216 114.131 44.928 113.171 44.352C112.227 43.76 111.475 42.944 110.915 41.904C110.371 40.848 110.099 39.656 110.099 38.328ZM120.923 38.376C120.923 37.464 120.731 36.672 120.347 36C119.979 35.328 119.491 34.816 118.883 34.464C118.275 34.112 117.619 33.936 116.915 33.936C116.211 33.936 115.555 34.112 114.947 34.464C114.339 34.8 113.843 35.304 113.459 35.976C113.091 36.632 112.907 37.416 112.907 38.328C112.907 39.24 113.091 40.04 113.459 40.728C113.843 41.416 114.339 41.944 114.947 42.312C115.571 42.664 116.227 42.84 116.915 42.84C117.619 42.84 118.275 42.664 118.883 42.312C119.491 41.96 119.979 41.448 120.347 40.776C120.731 40.088 120.923 39.288 120.923 38.376ZM139.397 38.064C139.397 38.56 139.365 39.008 139.301 39.408H129.197C129.277 40.464 129.669 41.312 130.373 41.952C131.077 42.592 131.941 42.912 132.965 42.912C134.437 42.912 135.477 42.296 136.085 41.064H139.037C138.637 42.28 137.909 43.28 136.853 44.064C135.813 44.832 134.517 45.216 132.965 45.216C131.701 45.216 130.565 44.936 129.557 44.376C128.565 43.8 127.781 43 127.205 41.976C126.645 40.936 126.365 39.736 126.365 38.376C126.365 37.016 126.637 35.824 127.181 34.8C127.741 33.76 128.517 32.96 129.509 32.4C130.517 31.84 131.669 31.56 132.965 31.56C134.213 31.56 135.325 31.832 136.301 32.376C137.277 32.92 138.037 33.688 138.581 34.68C139.125 35.656 139.397 36.784 139.397 38.064ZM136.541 37.2C136.525 36.192 136.165 35.384 135.461 34.776C134.757 34.168 133.885 33.864 132.845 33.864C131.901 33.864 131.093 34.168 130.421 34.776C129.749 35.368 129.349 36.176 129.221 37.2H136.541ZM147.201 42.552L150.945 31.776H153.849L148.809 45H145.545L140.529 31.776H143.457L147.201 42.552ZM158.653 27.24V45H155.917V27.24H158.653ZM167.981 45.216C166.733 45.216 165.605 44.936 164.597 44.376C163.589 43.8 162.797 43 162.221 41.976C161.645 40.936 161.357 39.736 161.357 38.376C161.357 37.032 161.653 35.84 162.245 34.8C162.837 33.76 163.645 32.96 164.669 32.4C165.693 31.84 166.837 31.56 168.101 31.56C169.365 31.56 170.509 31.84 171.533 32.4C172.557 32.96 173.365 33.76 173.957 34.8C174.549 35.84 174.845 37.032 174.845 38.376C174.845 39.72 174.541 40.912 173.933 41.952C173.325 42.992 172.493 43.8 171.437 44.376C170.397 44.936 169.245 45.216 167.981 45.216ZM167.981 42.84C168.685 42.84 169.341 42.672 169.949 42.336C170.573 42 171.077 41.496 171.461 40.824C171.845 40.152 172.037 39.336 172.037 38.376C172.037 37.416 171.853 36.608 171.485 35.952C171.117 35.28 170.629 34.776 170.021 34.44C169.413 34.104 168.757 33.936 168.053 33.936C167.349 33.936 166.693 34.104 166.085 34.44C165.493 34.776 165.021 35.28 164.669 35.952C164.317 36.608 164.141 37.416 164.141 38.376C164.141 39.8 164.501 40.904 165.221 41.688C165.957 42.456 166.877 42.84 167.981 42.84ZM182.878 31.56C183.902 31.56 184.806 31.768 185.59 32.184C186.39 32.584 187.014 33.088 187.462 33.696V31.776H190.222V45.216C190.222 46.432 189.966 47.512 189.454 48.456C188.942 49.416 188.198 50.168 187.222 50.712C186.262 51.256 185.11 51.528 183.766 51.528C181.974 51.528 180.486 51.104 179.302 50.256C178.118 49.424 177.446 48.288 177.286 46.848H179.998C180.206 47.536 180.646 48.088 181.318 48.504C182.006 48.936 182.822 49.152 183.766 49.152C184.87 49.152 185.758 48.816 186.43 48.144C187.118 47.472 187.462 46.496 187.462 45.216V43.008C186.998 43.632 186.366 44.16 185.566 44.592C184.782 45.008 183.886 45.216 182.878 45.216C181.726 45.216 180.67 44.928 179.71 44.352C178.766 43.76 178.014 42.944 177.454 41.904C176.91 40.848 176.638 39.656 176.638 38.328C176.638 37 176.91 35.824 177.454 34.8C178.014 33.776 178.766 32.984 179.71 32.424C180.67 31.848 181.726 31.56 182.878 31.56ZM187.462 38.376C187.462 37.464 187.27 36.672 186.886 36C186.518 35.328 186.03 34.816 185.422 34.464C184.814 34.112 184.158 33.936 183.454 33.936C182.75 33.936 182.094 34.112 181.486 34.464C180.878 34.8 180.382 35.304 179.998 35.976C179.63 36.632 179.446 37.416 179.446 38.328C179.446 39.24 179.63 40.04 179.998 40.728C180.382 41.416 180.878 41.944 181.486 42.312C182.11 42.664 182.766 42.84 183.454 42.84C184.158 42.84 184.814 42.664 185.422 42.312C186.03 41.96 186.518 41.448 186.886 40.776C187.27 40.088 187.462 39.288 187.462 38.376Z" fill="url(#paint1_linear_22_78)"/>
<defs>
<linearGradient id="paint0_linear_22_78" x1="0" y1="37.5" x2="75" y2="37.5" gradientUnits="userSpaceOnUse">
<stop stop-color="#3FD99D"/>
<stop offset="1" stop-color="#2E71A2"/>
</linearGradient>
<linearGradient id="paint1_linear_22_78" x1="22" y1="49" x2="193" y2="49" gradientUnits="userSpaceOnUse">
<stop stop-color="#3FD89E"/>
<stop offset="1" stop-color="#2F72A2"/>
</linearGradient>
</defs>
</svg>
